<svg width="153" height="43" viewBox="0 0 153 43" fill="none" xmlns="http://www.w3.org/2000/svg">
<path d="M0.0625 34.0455V29.0739L17.6619 1.27273H21.5795V8.59091H19.0938L6.50568 28.517V28.8352H30.6278V34.0455H0.0625ZM19.3722 42V32.5341L19.4119 30.267V1.27273H25.2386V42H19.3722ZM51.7372 42.6761C48.5952 42.6629 45.9105 41.8343 43.6832 40.1903C41.456 38.5464 39.7524 36.1534 38.5724 33.0114C37.3925 29.8693 36.8026 26.0843 36.8026 21.6562C36.8026 17.2415 37.3925 13.4697 38.5724 10.3409C39.7656 7.21212 41.4759 4.82576 43.7031 3.18182C45.9437 1.53788 48.6217 0.715908 51.7372 0.715908C54.8527 0.715908 57.5241 1.54451 59.7514 3.2017C61.9787 4.84564 63.6823 7.23201 64.8622 10.3608C66.0554 13.4763 66.652 17.2415 66.652 21.6562C66.652 26.0975 66.062 29.8892 64.8821 33.0312C63.7022 36.16 61.9986 38.553 59.7713 40.2102C57.544 41.8542 54.866 42.6761 51.7372 42.6761ZM51.7372 37.3665C54.4948 37.3665 56.6491 36.0208 58.2003 33.3295C59.7647 30.6383 60.5469 26.7472 60.5469 21.6562C60.5469 18.2756 60.1889 15.4186 59.473 13.0852C58.7704 10.7386 57.7562 8.96212 56.4304 7.75568C55.1179 6.53598 53.5535 5.92613 51.7372 5.92613C48.9929 5.92613 46.8385 7.27841 45.2741 9.98295C43.7098 12.6875 42.9209 16.5786 42.9077 21.6562C42.9077 25.0502 43.259 27.9205 43.9616 30.267C44.6776 32.6004 45.6918 34.3703 47.0043 35.5767C48.3168 36.7699 49.8944 37.3665 51.7372 37.3665ZM87.8857 42.6761C84.7436 42.6629 82.0589 41.8343 79.8317 40.1903C77.6044 38.5464 75.9008 36.1534 74.7209 33.0114C73.541 29.8693 72.951 26.0843 72.951 21.6562C72.951 17.2415 73.541 13.4697 74.7209 10.3409C75.9141 7.21212 77.6243 4.82576 79.8516 3.18182C82.0921 1.53788 84.7701 0.715908 87.8857 0.715908C91.0012 0.715908 93.6726 1.54451 95.8999 3.2017C98.1271 4.84564 99.8307 7.23201 101.011 10.3608C102.204 13.4763 102.8 17.2415 102.8 21.6562C102.8 26.0975 102.21 29.8892 101.031 33.0312C99.8506 36.16 98.147 38.553 95.9197 40.2102C93.6925 41.8542 91.0144 42.6761 87.8857 42.6761ZM87.8857 37.3665C90.6432 37.3665 92.7976 36.0208 94.3487 33.3295C95.9131 30.6383 96.6953 26.7472 96.6953 21.6562C96.6953 18.2756 96.3374 15.4186 95.6214 13.0852C94.9188 10.7386 93.9046 8.96212 92.5788 7.75568C91.2663 6.53598 89.7019 5.92613 87.8857 5.92613C85.1413 5.92613 82.987 7.27841 81.4226 9.98295C79.8582 12.6875 79.0694 16.5786 79.0561 21.6562C79.0561 25.0502 79.4074 27.9205 80.1101 30.267C80.826 32.6004 81.8402 34.3703 83.1527 35.5767C84.4652 36.7699 86.0429 37.3665 87.8857 37.3665ZM136.727 35.1591V8.27273H142.076V35.1591H136.727ZM125.968 24.3807V19.0511H152.854V24.3807H125.968Z" fill="#8CE900"/>
</svg>
